<?xml version="1.0" encoding="iso-8859-1"?>
<!-- Generator: Adobe Illustrator 19.0.0, SVG Export Plug-In . SVG Version: 6.00 Build 0)  -->
<svg version="1.1" id="Capa_1" xmlns="http://www.w3.org/2000/svg" xmlns:xlink="http://www.w3.org/1999/xlink" x="0px" y="0px"
	 viewBox="0 0 511.999 511.999" style="enable-background:new 0 0 511.999 511.999;" xml:space="preserve">
<path style="fill:#FEE6CC;" d="M414.742,229.64c-1.019,0-2.025,0.025-3.018,0.075c-39.055,1.578-70.222,33.738-70.222,73.166
	c0,34.21,23.465,62.955,55.191,70.992c5.764,1.466,11.813,2.248,18.049,2.248c40.446,0,73.24-32.794,73.24-73.241
	S455.188,229.64,414.742,229.64z M414.742,341.96c-2.174,0-4.31-0.174-6.385-0.522c-18.546-3.043-32.695-19.142-32.695-38.558
	c0-20.571,15.888-37.428,36.061-38.968c0.994-0.075,2-0.112,3.018-0.112c21.589,0,39.08,17.49,39.08,39.08
	C453.822,324.47,436.331,341.96,414.742,341.96z"/>
<path style="fill:#FCCE99;" d="M375.662,302.88c0,19.416,14.149,35.515,32.695,38.558c-2.546,11.403-6.497,22.285-11.664,32.434
	c-31.726-8.037-55.191-36.782-55.191-70.992c0-39.428,31.167-71.588,70.222-73.166v34.198
	C391.55,265.452,375.662,282.309,375.662,302.88z"/>
<path style="fill:#FEE6CC;" d="M392.814,218.958v90.424c0,76.774-61.491,140.224-138.265,140.772
	c-16.278,0.112-31.918-2.568-46.46-7.591c-47.211-16.278-82.935-57.238-91.724-107.464c-1.38-7.855-2.101-15.944-2.101-24.205
	v-91.936c0-5.551,4.506-10.047,10.057-10.047h258.445C388.318,208.911,392.814,213.407,392.814,218.958z"/>
<g>
	<path style="fill:#FCCE99;" d="M213.778,433.759c-1.602,3.068-3.516,6.012-5.689,8.807c-47.216-16.285-82.93-57.241-91.724-107.463
		c3.441,1.255,6.72,2.907,9.751,4.932c7.453,4.981,13.205,12.062,16.907,20.509c4.534-0.708,9.081-1.081,13.577-1.081
		c31.565,0,57.092,17.515,62.073,42.583C220.784,412.617,219.082,423.585,213.778,433.759z"/>
	<path style="fill:#FCCE99;" d="M392.817,282.185v28.707c0,76.917-62.359,139.264-139.276,139.264S114.264,387.81,114.264,310.892
		v-28.707c0,76.917,62.359,139.276,139.276,139.276S392.817,359.102,392.817,282.185z"/>
	<rect x="142.14" y="475.36" style="fill:#FCCE99;" width="222.79" height="36.639"/>
</g>
<path style="fill:#E2780E;" d="M200.812,413.345c-0.355,4.029-1.573,7.997-3.552,11.793c-6.546,12.534-21.342,23.027-39.925,26.721
	c-27.767,5.511-53.493-6.211-57.472-26.214c-0.03-0.173-0.061-0.335-0.081-0.507c-3.562-19.82,15.639-40.209,43.152-45.679
	c24.215-4.8,46.876,3.491,54.904,18.958c1.187,2.273,2.05,4.699,2.557,7.256C200.903,408.23,201.035,410.798,200.812,413.345z"/>
<g>
	<path style="fill:#A85000;" d="M197.256,425.138c-6.546,12.534-21.341,23.03-39.924,26.72
		c-27.763,5.515-53.489-6.211-57.464-26.211c-0.037-0.174-0.062-0.335-0.087-0.509H197.256z"/>
	<path style="fill:#A85000;" d="M157.327,451.855c-27.754,5.517-53.479-6.214-57.453-26.207c-0.533-2.68-0.652-5.38-0.371-8.045
		c8.175,15.258,30.693,23.409,54.719,18.633s41.715-20.919,43.433-38.143c1.279,2.355,2.202,4.895,2.734,7.575
		C204.364,425.661,185.082,446.338,157.327,451.855z"/>
	<path style="fill:#A85000;" d="M200.812,413.345l-56.863,11.306c-0.497,0.101-0.995,0.142-1.492,0.142
		c-3.552,0-6.729-2.507-7.449-6.13c-0.822-4.12,1.857-8.129,5.977-8.941l56.853-11.306c1.187,2.273,2.05,4.699,2.557,7.256
		C200.903,408.23,201.035,410.798,200.812,413.345z"/>
</g>
<path style="fill:#E2780E;" d="M117.968,418.633c-1.543,2.294-3.187,4.465-4.912,6.505c-15.913,18.755-38.961,25.818-54.245,15.588
	c-5.49-3.664-9.306-9.103-11.427-15.588c-4.415-13.528-1.421-31.603,9.215-47.516c13.721-20.521,35.612-30.669,52.225-25.412
	c2.446,0.761,4.77,1.867,6.932,3.319c2.172,1.451,4.08,3.177,5.714,5.145C132.674,374.009,131.669,398.112,117.968,418.633z"/>
<g>
	<path style="fill:#A85000;" d="M113.059,425.138c-15.913,18.757-38.968,25.813-54.247,15.59c-5.49-3.665-9.304-9.105-11.428-15.59
		H113.059z"/>
	<path style="fill:#A85000;" d="M117.966,418.634c-15.724,23.527-42.209,33.421-59.157,22.094c-2.272-1.519-4.265-3.343-5.951-5.426
		c16.569,5.008,38.255-5.151,51.867-25.517s14.705-44.289,3.74-57.683c2.569,0.761,5.018,1.904,7.29,3.423
		C132.703,366.852,133.69,395.108,117.966,418.634z"/>
	<path style="fill:#A85000;" d="M121.47,360.674L89.268,408.85c-1.461,2.202-3.877,3.39-6.333,3.39
		c-1.451,0-2.923-0.416-4.222-1.289c-3.491-2.334-4.435-7.063-2.101-10.555l32.212-48.186c2.446,0.761,4.77,1.867,6.932,3.319
		C117.928,356.98,119.836,358.705,121.47,360.674z"/>
</g>
<path style="fill:#FEE6CC;" d="M24.018,452.493L24.018,452.493c0,4.782,3.4,8.888,8.098,9.781l109.626,20.822h223.597
	l109.626-20.822c4.698-0.892,8.098-4.999,8.098-9.781l0,0c0-5.498-4.457-9.956-9.956-9.956H33.973
	C28.475,442.538,24.018,446.995,24.018,452.493z"/>
<g>
	<rect x="114.26" y="231.9" style="fill:#FCCE99;" width="278.55" height="15.223"/>
	<path style="fill:#FCCE99;" d="M305.986,45.349c0-18.039-9.132-34.554-24.428-44.179c-3.557-2.239-8.259-1.169-10.496,2.389
		c-2.239,3.558-1.169,8.257,2.388,10.496c10.84,6.821,17.312,18.519,17.312,31.294c0,12.774-6.472,24.473-17.312,31.293
		c-4.653,2.919-4.653,9.956,0,12.885c10.84,6.821,17.312,18.519,17.312,31.294c0,12.774-6.472,24.473-17.312,31.293
		c-3.558,2.239-4.627,6.938-2.388,10.496c1.446,2.299,3.92,3.559,6.449,3.559c1.386,0,2.788-0.378,4.047-1.17
		c15.296-9.624,24.428-26.14,24.428-44.178c0-14.493-5.904-27.994-16.154-37.736C300.082,73.342,305.986,59.842,305.986,45.349z"/>
	<path style="fill:#FCCE99;" d="M335.125,76.643c-3.557-2.239-8.258-1.17-10.496,2.388c-2.239,3.557-1.169,8.257,2.389,10.496
		c10.839,6.821,17.311,18.52,17.311,31.294s-6.472,24.473-17.311,31.294c-3.558,2.239-4.627,6.938-2.389,10.496
		c1.446,2.299,3.92,3.559,6.449,3.559c1.386,0,2.788-0.378,4.047-1.17c15.295-9.624,24.427-26.14,24.427-44.178
		C359.552,102.783,350.42,86.267,335.125,76.643z"/>
	<path style="fill:#FCCE99;" d="M223.607,76.642c-3.557-2.238-8.259-1.169-10.496,2.389c-2.239,3.558-1.169,8.257,2.388,10.496
		c10.84,6.821,17.312,18.519,17.312,31.294c0,12.774-6.472,24.473-17.312,31.293c-3.558,2.239-4.627,6.938-2.388,10.496
		c1.446,2.299,3.92,3.559,6.449,3.559c1.386,0,2.788-0.378,4.047-1.17c15.296-9.624,24.428-26.14,24.428-44.178
		C248.035,102.782,238.903,86.267,223.607,76.642z"/>
</g>
<g>
</g>
<g>
</g>
<g>
</g>
<g>
</g>
<g>
</g>
<g>
</g>
<g>
</g>
<g>
</g>
<g>
</g>
<g>
</g>
<g>
</g>
<g>
</g>
<g>
</g>
<g>
</g>
<g>
</g>
</svg>
