<?xml version="1.0" standalone="no"?>
<!DOCTYPE svg PUBLIC "-//W3C//DTD SVG 20010904//EN"
 "http://www.w3.org/TR/2001/REC-SVG-20010904/DTD/svg10.dtd">
<svg version="1.0" xmlns="http://www.w3.org/2000/svg"
 width="640.000000pt" height="640.000000pt" viewBox="0 0 640.000000 640.000000"
 preserveAspectRatio="xMidYMid meet">
<metadata>
Created by potrace 1.11, written by Peter Selinger 2001-2013
</metadata>
<g transform="translate(0.000000,640.000000) scale(0.100000,-0.100000)"
fill="#000000" stroke="none">
<path d="M1130 5428 c-67 -21 -132 -81 -153 -141 -11 -33 -20 -148 -18 -242 0
-37 1 -103 0 -117 0 -10 1 -33 1 -50 0 -18 -1 -61 -2 -96 -2 -34 -1 -62 2 -62
3 0 4 -28 3 -62 -7 -162 -8 -268 -3 -268 3 0 3 -29 0 -65 -3 -36 -3 -65 0 -65
4 0 3 -23 0 -51 -4 -29 -4 -68 0 -88 3 -20 3 -50 -1 -68 -3 -17 -3 -37 1 -43
4 -6 4 -29 0 -50 -4 -21 -4 -44 0 -50 4 -6 4 -26 1 -43 -4 -18 -4 -51 -1 -74
4 -24 4 -43 1 -43 -3 0 -6 -72 -6 -160 0 -88 2 -160 5 -160 3 0 3 -29 0 -65
-3 -36 -2 -65 3 -65 4 0 5 -4 2 -10 -3 -5 -6 -56 -5 -112 0 -57 1 -111 1 -120
0 -10 0 -34 0 -53 0 -19 0 -43 -1 -52 0 -10 0 -31 0 -48 -4 -333 155 -640 425
-820 78 -51 164 -95 218 -110 4 -2 8 -3 10 -5 2 -2 12 -4 90 -24 94 -23 283
-36 309 -20 4 3 8 1 8 -3 0 -5 29 -6 65 -3 36 3 65 3 65 0 0 -6 146 -3 173 4
9 2 17 1 17 -3 0 -3 29 -4 65 -1 36 3 65 3 65 0 0 -5 106 -4 268 3 34 1 62 0
62 -3 0 -3 28 -4 62 -2 97 4 159 3 168 -3 5 -3 11 -1 14 3 3 5 25 6 48 3 24
-4 57 -4 73 -1 17 3 50 3 75 0 25 -3 57 -3 70 0 14 4 36 4 50 0 14 -4 36 -4
50 0 14 3 43 3 65 0 22 -3 59 -3 83 0 24 4 45 3 48 -2 3 -5 9 -6 13 -4 8 5 45
7 171 7 95 0 167 5 220 15 19 4 40 8 45 8 62 7 220 75 313 136 232 150 411
446 425 703 1 15 5 27 9 27 3 0 3 13 -2 30 -5 16 -5 32 -1 34 4 3 41 5 82 5
41 1 90 1 109 2 19 1 42 1 50 0 143 -11 366 21 505 73 39 15 75 28 80 29 6 1
12 4 15 7 3 3 28 16 55 29 61 28 196 116 249 162 96 83 256 269 256 297 0 6 4
12 8 14 21 9 128 248 147 331 36 153 42 209 40 352 -2 83 -6 166 -10 185 -3
19 -8 44 -10 55 -19 114 -88 285 -173 430 -41 71 -165 212 -253 289 -153 134
-373 240 -581 282 -77 15 -275 28 -358 24 -19 -1 -41 -2 -47 -1 -20 2 -44 2
-96 1 -26 -1 -50 1 -55 3 -4 3 -31 1 -59 -2 -29 -4 -53 -5 -53 -1 0 3 -29 3
-65 0 -36 -3 -65 -3 -65 0 0 5 -106 4 -268 -3 -34 -1 -62 0 -62 3 0 3 -28 4
-62 2 -35 -1 -78 -2 -95 -2 -18 0 -41 1 -50 1 -19 -1 -101 0 -118 1 -5 0 -52
-1 -103 -2 -51 -1 -95 0 -98 3 -3 2 -20 1 -38 -3 -19 -4 -39 -4 -46 0 -6 4
-29 4 -51 0 -22 -4 -41 -4 -44 0 -2 4 -25 4 -50 0 -25 -4 -45 -4 -45 -1 0 3
-28 5 -62 3 -35 -1 -85 -2 -113 -1 -59 1 -55 1 -128 -1 -32 -1 -60 0 -63 3 -3
2 -20 1 -38 -3 -19 -4 -39 -4 -46 0 -6 4 -29 4 -51 0 -22 -4 -41 -4 -44 0 -2
4 -25 4 -50 0 -25 -4 -45 -4 -45 -1 0 5 -52 5 -140 1 -14 -1 -68 -1 -120 -1
-52 1 -123 0 -158 -1 -34 -2 -62 -1 -62 2 0 3 -28 4 -62 2 -35 -1 -79 -2 -98
-2 -19 1 -46 0 -60 0 -14 -1 -32 -2 -40 -1 -93 3 -222 1 -230 -4 -6 -3 -10 -2
-10 2 0 5 -29 6 -65 3 -36 -3 -65 -3 -65 0 0 3 -72 5 -160 5 -88 0 -160 -3
-160 -7 0 -4 -6 -5 -12 -3 -35 14 -176 9 -228 -7z m3842 -633 c7 7 68 7 168 1
117 -8 138 -10 146 -19 4 -4 15 -7 25 -7 10 0 55 -19 100 -42 116 -59 223
-166 278 -280 48 -99 62 -155 67 -267 4 -95 -13 -190 -47 -266 -12 -27 -23
-52 -24 -55 -4 -21 -68 -104 -114 -150 -46 -47 -130 -111 -151 -115 -3 -1 -27
-12 -55 -24 -62 -28 -160 -48 -244 -51 -36 0 -68 -3 -73 -6 -4 -3 -8 -1 -8 4
0 4 -22 6 -50 2 -27 -4 -50 -4 -50 -1 0 3 -31 5 -69 4 l-69 -2 -4 44 c-2 25 1
45 5 45 5 0 6 4 3 8 -6 9 -7 45 -7 227 0 72 0 135 -1 140 0 6 1 21 2 35 0 14
1 41 0 60 0 19 1 63 2 98 2 34 1 62 -2 62 -3 0 -4 28 -2 62 1 35 2 119 1 188
0 134 0 133 2 183 0 17 0 37 -1 42 -1 6 -2 27 -1 47 l1 38 61 -1 c33 -1 63 1
66 5 3 3 13 1 23 -4 10 -5 19 -7 22 -5z"/>
<path d="M185 1602 c-2 -3 -28 -5 -57 -4 -48 0 -56 -4 -85 -35 -45 -48 -53
-114 -29 -228 3 -11 5 -21 6 -22 2 -2 3 -6 4 -10 9 -48 71 -149 126 -203 44
-44 110 -95 110 -85 0 4 6 2 13 -4 27 -22 103 -42 176 -47 41 -3 78 -7 82 -10
4 -2 10 0 13 4 3 5 22 6 43 3 21 -4 55 -4 75 0 20 3 42 3 48 -1 6 -4 29 -4 50
0 21 4 44 4 50 0 6 -4 26 -4 43 -1 18 4 48 4 68 1 20 -4 59 -4 88 0 28 3 51 4
51 0 0 -3 29 -3 65 0 36 3 65 3 65 0 0 -5 106 -4 268 3 34 1 62 0 62 -3 0 -3
28 -4 62 -2 35 1 79 2 98 2 19 -1 46 0 60 0 14 1 32 2 40 1 93 -3 222 -1 230
4 6 3 10 2 10 -2 0 -5 29 -6 65 -3 36 3 65 3 65 0 0 -3 72 -5 160 -5 88 0 160
3 160 6 0 3 19 3 43 -1 23 -3 56 -3 74 1 17 3 37 3 43 -1 6 -4 29 -4 50 0 21
4 44 4 50 0 6 -4 26 -4 43 -1 18 4 48 4 68 1 20 -4 59 -4 88 0 28 3 51 4 51 0
0 -3 29 -3 65 0 36 3 65 3 65 0 0 -5 106 -4 268 3 34 1 62 0 62 -3 0 -3 28 -4
62 -2 35 1 79 2 98 2 19 -1 46 0 60 0 14 1 32 2 40 1 93 -3 222 -1 230 4 6 3
10 2 10 -2 0 -5 29 -6 65 -3 36 3 65 3 65 0 0 -3 72 -5 160 -5 88 0 160 3 160
6 0 3 19 3 43 -1 23 -3 56 -3 74 1 17 3 37 3 43 -1 6 -4 29 -4 50 0 21 4 44 4
50 0 6 -4 26 -4 43 -1 18 4 48 4 68 1 20 -4 59 -4 88 0 28 3 51 4 51 0 0 -3
29 -3 65 0 36 3 65 3 65 0 0 -6 146 -3 173 4 9 2 17 1 17 -3 0 -3 29 -4 65 -1
36 3 65 3 65 0 0 -6 227 -3 302 5 113 11 195 52 283 141 36 36 65 72 65 79 0
7 5 15 11 17 5 2 11 10 13 18 1 8 8 26 16 40 23 42 38 127 36 195 -5 106 -52
148 -161 145 -11 -1 -68 0 -128 0 -59 1 -112 -2 -117 -5 -6 -3 -10 -2 -10 2 0
5 -29 6 -65 3 -36 -3 -65 -3 -65 0 0 3 -72 5 -160 5 -88 0 -160 -3 -160 -6 0
-3 -19 -3 -42 1 -24 3 -57 3 -75 -1 -17 -3 -37 -3 -43 1 -6 4 -29 4 -50 0 -21
-4 -44 -4 -50 0 -6 4 -26 4 -43 1 -18 -4 -48 -4 -68 -1 -20 4 -59 4 -88 0 -28
-3 -51 -4 -51 0 0 3 -29 3 -65 0 -36 -3 -65 -3 -65 0 0 5 -106 4 -268 -3 -34
-1 -62 0 -62 3 0 3 -28 4 -62 2 -35 -1 -79 -2 -98 -2 -19 1 -46 0 -60 0 -14
-1 -31 -2 -37 -1 -7 0 -60 0 -118 0 -58 0 -113 0 -122 1 -10 0 -40 -1 -68 -1
-27 -1 -54 -1 -60 -1 -85 5 -325 5 -325 1 0 -3 -19 -3 -42 1 -24 3 -57 3 -75
-1 -17 -3 -37 -3 -43 1 -6 4 -29 4 -50 0 -21 -4 -44 -4 -50 0 -6 4 -26 4 -43
1 -18 -4 -48 -4 -68 -1 -20 4 -59 4 -88 0 -28 -3 -51 -4 -51 0 0 3 -29 3 -65
0 -36 -3 -65 -3 -65 0 0 5 -106 4 -268 -3 -34 -1 -62 0 -62 3 0 3 -28 4 -62 2
-35 -1 -79 -2 -98 -2 -19 1 -46 0 -60 0 -14 -1 -32 -2 -40 -1 -93 3 -222 1
-230 -4 -6 -3 -10 -2 -10 2 0 5 -29 6 -65 3 -36 -3 -65 -3 -65 0 0 3 -72 5
-160 5 -88 0 -160 -3 -160 -6 0 -3 -19 -3 -42 1 -24 3 -57 3 -75 -1 -17 -3
-37 -3 -43 1 -6 4 -29 4 -50 0 -21 -4 -44 -4 -50 0 -6 4 -26 4 -43 1 -18 -4
-48 -4 -68 -1 -20 4 -59 4 -88 0 -28 -3 -51 -4 -51 0 0 3 -29 3 -65 0 -36 -3
-65 -3 -65 0 0 5 -106 4 -268 -3 -34 -1 -62 0 -62 3 0 3 -25 5 -55 5 -30 0
-55 -3 -55 -6 0 -3 -23 -3 -50 1 -28 4 -52 4 -55 2z"/>
</g>
</svg>
