<?xml version="1.0" encoding="UTF-8" standalone="no"?><!DOCTYPE svg PUBLIC "-//W3C//DTD SVG 1.1//EN" "http://www.w3.org/Graphics/SVG/1.1/DTD/svg11.dtd"><svg width="100%" height="100%" viewBox="0 0 600 300" version="1.1" xmlns="http://www.w3.org/2000/svg" xmlns:xlink="http://www.w3.org/1999/xlink" xml:space="preserve" xmlns:serif="http://www.serif.com/" style="fill-rule:evenodd;clip-rule:evenodd;"><path d="M80,50l0,200" style="fill:none;fill-rule:nonzero;stroke:currentColor;stroke-width:2px;"/><path d="M80,250l500,0" style="fill:none;fill-rule:nonzero;stroke:currentColor;stroke-width:2px;"/><g transform="matrix(-3.82857e-16,-1,1,-3.82857e-16,-120,180)"><text x="-10.233px" y="150px" style="fill:currentColor;font-family:'Manrope-Medium', 'Manrope';font-weight:500;font-size:14px;">Distr<tspan x="20.959px " y="150px ">a</tspan>ctions</text></g><text x="68.36px" y="270px" style="fill:currentColor;font-family:'Manrope-Medium', 'Manrope';font-weight:500;font-size:12px;">7am</text><text x="142.709px" y="270px" style="fill:currentColor;font-family:'Manrope-Medium', 'Manrope';font-weight:500;font-size:12px;">9am</text><text x="216.563px" y="270px" style="fill:currentColor;font-family:'Manrope-Medium', 'Manrope';font-weight:500;font-size:12px;">11am</text><text x="293.774px" y="270px" style="fill:currentColor;font-family:'Manrope-Medium', 'Manrope';font-weight:500;font-size:12px;">1pm</text><text x="367.835px" y="270px" style="fill:currentColor;font-family:'Manrope-Medium', 'Manrope';font-weight:500;font-size:12px;">3pm</text><text x="442.727px" y="270px" style="fill:currentColor;font-family:'Manrope-Medium', 'Manrope';font-weight:500;font-size:12px;">5pm</text><text x="493.135px" y="270px" style="fill:currentColor;font-family:'Manrope-Medium', 'Manrope';font-weight:500;font-size:12px;">7pm</text><text x="566.338px" y="270px" style="fill:currentColor;font-family:'Manrope-Medium', 'Manrope';font-weight:500;font-size:12px;">11pm</text><path d="M80.916,149.654c25.264,0.237 38.83,-69.923 75.804,-70.38c107.883,-1.334 111.996,149.619 295,150.517c114.748,0.564 77.665,-82.994 128.477,-82.994" style="fill:none;stroke:currentColor;stroke-width:3px;stroke-linecap:round;stroke-linejoin:round;stroke-miterlimit:1.5;"/><path d="M75,80l10,0" style="fill:none;fill-rule:nonzero;stroke:currentColor;stroke-width:1px;"/><text x="48.495px" y="85px" style="fill:currentColor;font-family:'Manrope-Medium', 'Manrope';font-weight:500;font-size:10px;">High</text><path d="M75,150l10,0" style="fill:none;fill-rule:nonzero;stroke:currentColor;stroke-width:1px;"/><text x="49.635px" y="155px" style="fill:currentColor;font-family:'Manrope-Medium', 'Manrope';font-weight:500;font-size:10px;">Med</text><path d="M75,220l10,0" style="fill:none;fill-rule:nonzero;stroke:currentColor;stroke-width:1px;"/><text x="51.225px" y="225px" style="fill:currentColor;font-family:'Manrope-Medium', 'Manrope';font-weight:500;font-size:10px;">Lo<tspan x="62.21px " y="225px ">w</tspan></text></svg>
